<svg width="40" height="40" viewBox="0 0 40 40" fill="none" xmlns="http://www.w3.org/2000/svg">
<path d="M38.2505 23.5C38.1192 23.5985 37.9697 23.6701 37.8107 23.7109C37.6517 23.7516 37.4862 23.7606 37.3237 23.7374C37.1612 23.7142 37.0049 23.6592 36.8636 23.5756C36.7224 23.492 36.599 23.3813 36.5005 23.25C35.7471 22.2373 34.7664 21.4156 33.6374 20.8511C32.5084 20.2866 31.2627 19.9951 30.0005 20C29.7547 20 29.5143 19.9275 29.3095 19.7916C29.1047 19.6557 28.9445 19.4624 28.8489 19.2359C28.784 19.0821 28.7506 18.9169 28.7506 18.75C28.7506 18.5831 28.784 18.4178 28.8489 18.2641C28.9445 18.0376 29.1047 17.8443 29.3095 17.7084C29.5143 17.5725 29.7547 17.5 30.0005 17.5C30.7018 17.4999 31.3891 17.3032 31.9843 16.9321C32.5794 16.561 33.0586 16.0304 33.3673 15.4007C33.676 14.7709 33.802 14.0672 33.7308 13.3695C33.6596 12.6717 33.3942 12.0079 32.9647 11.4535C32.5352 10.899 31.9588 10.4761 31.3009 10.2328C30.6431 9.98954 29.9303 9.93561 29.2433 10.0772C28.5564 10.2187 27.9229 10.5501 27.4149 11.0336C26.9068 11.5171 26.5446 12.1334 26.3692 12.8125C26.3282 12.9715 26.2562 13.1209 26.1575 13.2521C26.0587 13.3833 25.935 13.4938 25.7936 13.5772C25.6521 13.6607 25.4956 13.7154 25.333 13.7383C25.1704 13.7613 25.0048 13.752 24.8458 13.7109C24.6868 13.6699 24.5374 13.5979 24.4062 13.4992C24.275 13.4004 24.1645 13.2768 24.0811 13.1353C23.9976 12.9938 23.9429 12.8373 23.9199 12.6747C23.897 12.5121 23.9063 12.3465 23.9473 12.1875C24.1907 11.2458 24.6505 10.3739 25.2901 9.64117C25.9298 8.90844 26.7316 8.33511 27.6318 7.96679C28.532 7.59848 29.5057 7.44534 30.4755 7.51957C31.4453 7.59381 32.3844 7.89335 33.2181 8.39439C34.0517 8.89542 34.757 9.58411 35.2776 10.4056C35.7983 11.2272 36.12 12.1589 36.2172 13.1267C36.3145 14.0944 36.1845 15.0715 35.8376 15.9802C35.4907 16.8889 34.9366 17.7041 34.2192 18.3609C35.9189 19.0969 37.3965 20.2647 38.5052 21.7484C38.6036 21.8801 38.6752 22.0299 38.7157 22.1892C38.7562 22.3486 38.7649 22.5143 38.7412 22.6771C38.7176 22.8398 38.662 22.9962 38.5778 23.1374C38.4936 23.2786 38.3824 23.4018 38.2505 23.5ZM29.8317 33.125C29.9222 33.2673 29.9829 33.4264 30.0103 33.5927C30.0376 33.7591 30.031 33.9292 29.9909 34.093C29.9508 34.2567 29.878 34.4107 29.7769 34.5455C29.6757 34.6804 29.5483 34.7934 29.4024 34.8778C29.2564 34.9622 29.0949 35.0161 28.9276 35.0365C28.7602 35.0568 28.5905 35.0431 28.4286 34.9961C28.2666 34.9491 28.1159 34.8699 27.9854 34.7631C27.8549 34.6564 27.7474 34.5244 27.6692 34.375C26.8818 33.0417 25.7603 31.9367 24.4155 31.1691C23.0707 30.4014 21.549 29.9977 20.0005 29.9977C18.452 29.9977 16.9303 30.4014 15.5854 31.1691C14.2406 31.9367 13.1191 33.0417 12.3317 34.375C12.2536 34.5244 12.146 34.6564 12.0155 34.7631C11.885 34.8699 11.7343 34.9491 11.5724 34.9961C11.4105 35.0431 11.2407 35.0568 11.0734 35.0365C10.906 35.0161 10.7445 34.9622 10.5986 34.8778C10.4526 34.7934 10.3252 34.6804 10.2241 34.5455C10.1229 34.4107 10.0501 34.2567 10.01 34.093C9.9699 33.9292 9.96333 33.7591 9.99069 33.5927C10.018 33.4264 10.0788 33.2673 10.1692 33.125C11.3811 31.0428 13.2289 29.4042 15.4411 28.45C14.1963 27.4969 13.2815 26.1777 12.8252 24.6779C12.3689 23.178 12.3941 21.5728 12.8972 20.088C13.4004 18.6031 14.3562 17.3133 15.6303 16.3998C16.9044 15.4863 18.4327 14.995 20.0005 14.995C21.5682 14.995 23.0966 15.4863 24.3707 16.3998C25.6448 17.3133 26.6006 18.6031 27.1037 20.088C27.6069 21.5728 27.6321 23.178 27.1758 24.6779C26.7195 26.1777 25.8046 27.4969 24.5598 28.45C26.772 29.4042 28.6199 31.0428 29.8317 33.125ZM20.0005 27.5C20.9894 27.5 21.9561 27.2068 22.7783 26.6573C23.6006 26.1079 24.2414 25.327 24.6199 24.4134C24.9983 23.4998 25.0973 22.4944 24.9044 21.5245C24.7115 20.5546 24.2353 19.6637 23.536 18.9645C22.8367 18.2652 21.9458 17.789 20.9759 17.5961C20.006 17.4031 19.0007 17.5022 18.0871 17.8806C17.1734 18.259 16.3925 18.8999 15.8431 19.7221C15.2937 20.5444 15.0005 21.5111 15.0005 22.5C15.0005 23.8261 15.5273 25.0978 16.4649 26.0355C17.4026 26.9732 18.6744 27.5 20.0005 27.5ZM11.2505 18.75C11.2505 18.4185 11.1188 18.1005 10.8844 17.8661C10.6499 17.6317 10.332 17.5 10.0005 17.5C9.29911 17.4999 8.61182 17.3032 8.01667 16.9321C7.42152 16.561 6.94237 16.0304 6.63364 15.4007C6.32492 14.7709 6.19898 14.0672 6.27015 13.3695C6.34132 12.6717 6.60674 12.0079 7.03626 11.4535C7.46578 10.899 8.04219 10.4761 8.7 10.2328C9.35781 9.98954 10.0707 9.93561 10.7576 10.0772C11.4445 10.2187 12.078 10.5501 12.5861 11.0336C13.0941 11.5171 13.4564 12.1334 13.6317 12.8125C13.7146 13.1337 13.9217 13.4087 14.2074 13.5772C14.4931 13.7457 14.834 13.7938 15.1552 13.7109C15.4763 13.6281 15.7514 13.421 15.9199 13.1353C16.0884 12.8496 16.1365 12.5087 16.0536 12.1875C15.8102 11.2458 15.3504 10.3739 14.7108 9.64117C14.0712 8.90844 13.2693 8.33511 12.3691 7.96679C11.4689 7.59848 10.4952 7.44534 9.5254 7.51957C8.5556 7.59381 7.61651 7.89335 6.78285 8.39439C5.9492 8.89542 5.24398 9.58411 4.72331 10.4056C4.20265 11.2272 3.88091 12.1589 3.7837 13.1267C3.68649 14.0944 3.81649 15.0715 4.16335 15.9802C4.51021 16.8889 5.06437 17.7041 5.78172 18.3609C4.08372 19.0976 2.60783 20.2653 1.50047 21.7484C1.40188 21.8798 1.33011 22.0292 1.28928 22.1883C1.24844 22.3473 1.23934 22.5129 1.26248 22.6754C1.28562 22.838 1.34056 22.9944 1.42415 23.1358C1.50775 23.2771 1.61837 23.4006 1.74969 23.4992C1.88101 23.5978 2.03047 23.6696 2.18952 23.7104C2.34858 23.7512 2.51412 23.7603 2.67669 23.7372C2.83927 23.7141 2.99569 23.6591 3.13704 23.5755C3.27838 23.4919 3.40188 23.3813 3.50047 23.25C4.25389 22.2373 5.23455 21.4156 6.36353 20.8511C7.49251 20.2866 8.73825 19.9951 10.0005 20C10.332 20 10.6499 19.8683 10.8844 19.6339C11.1188 19.3995 11.2505 19.0815 11.2505 18.75Z" fill="white"/>
</svg>
